<svg width="901" height="1080" viewBox="0 0 901 1080" fill="none" xmlns="http://www.w3.org/2000/svg">
<g opacity="0.01" filter="url(#filter0_f_2242_875)">
<path d="M189.105 714.663V913.863H743.98V195.793H712.68V165.438H445.201V195.793H410.107V597.039L354.145 555.302L152.113 714.663H189.105Z" fill="#06A177"/>
</g>
<g opacity="0.08" filter="url(#filter1_f_2242_875)">
<path d="M155.752 739.348V966.158H786.846V148.562H751.246V114H447.026V148.562H407.111V605.422L343.462 557.9L113.679 739.348H155.752Z" fill="#06A177"/>
</g>
<g filter="url(#filter2_f_2242_875)">
<path d="M846 913.863H115.579M746.397 913.863V198.141C746.397 196.447 745.025 195.074 743.332 195.074H713.707M412.344 599.457V198.141C412.344 196.447 413.716 195.074 415.409 195.074H440.948M412.344 599.457L354.501 554.923C353.376 554.057 351.805 554.077 350.702 554.971L154.477 714.145C152.234 715.965 153.52 719.596 156.407 719.596H185.556C187.249 719.596 188.621 720.969 188.621 722.663V913.863M412.344 599.457L566.808 721.276C569.092 723.078 567.819 726.753 564.911 726.753H530.335C528.643 726.753 527.271 728.126 527.271 729.82V913.863M440.948 195.074V165.934C440.948 164.24 442.32 162.866 444.013 162.866H710.642C712.335 162.866 713.707 164.24 713.707 165.934V195.074M440.948 195.074H713.707M382.719 913.863V769.696C382.719 768.002 384.091 766.629 385.783 766.629H458.826C460.518 766.629 461.89 768.002 461.89 769.696V913.863M700.937 741.578V815.707C700.937 817.401 699.565 818.774 697.873 818.774H647.305C645.612 818.774 644.24 817.401 644.24 815.707V741.578C644.24 739.884 645.612 738.511 647.305 738.511H697.873C699.565 738.511 700.937 739.884 700.937 741.578ZM245.829 745.668V819.797C245.829 821.491 247.201 822.864 248.893 822.864H315.295C316.988 822.864 318.36 821.491 318.36 819.797V745.668C318.36 743.974 316.988 742.601 315.295 742.601H248.893C247.201 742.601 245.829 743.974 245.829 745.668ZM701.193 425.127V499.767C701.193 501.461 699.821 502.834 698.128 502.834H647.05C645.357 502.834 643.985 501.461 643.985 499.767V425.127C643.985 423.433 645.357 422.06 647.05 422.06H698.128C699.821 422.06 701.193 423.433 701.193 425.127ZM701.193 270.736V345.375C701.193 347.069 699.821 348.443 698.128 348.443H647.05C645.357 348.443 643.985 347.069 643.985 345.375V270.736C643.985 269.042 645.357 267.668 647.05 267.668H698.128C699.821 267.668 701.193 269.042 701.193 270.736ZM701.193 579.519V654.158C701.193 655.852 699.821 657.225 698.128 657.225H647.05C645.357 657.225 643.985 655.852 643.985 654.158V579.519C643.985 577.824 645.357 576.451 647.05 576.451H698.128C699.821 576.451 701.193 577.824 701.193 579.519ZM602.867 425.127V499.767C602.867 501.461 601.495 502.834 599.802 502.834H548.724C547.031 502.834 545.659 501.461 545.659 499.767V425.127C545.659 423.433 547.031 422.06 548.724 422.06H599.802C601.495 422.06 602.867 423.433 602.867 425.127ZM602.867 270.736V345.375C602.867 347.069 601.495 348.443 599.802 348.443H548.724C547.031 348.443 545.659 347.069 545.659 345.375V270.736C545.659 269.042 547.031 267.668 548.724 267.668H599.802C601.495 267.668 602.867 269.042 602.867 270.736ZM603.122 579.519V654.158C603.122 655.852 601.75 657.225 600.057 657.225H548.979C547.286 657.225 545.914 655.852 545.914 654.158V579.519C545.914 577.824 547.286 576.451 548.979 576.451H600.057C601.75 576.451 603.122 577.824 603.122 579.519ZM504.796 425.127V499.767C504.796 501.461 503.424 502.834 501.731 502.834H450.653C448.96 502.834 447.588 501.461 447.588 499.767V425.127C447.588 423.433 448.96 422.06 450.653 422.06H501.731C503.424 422.06 504.796 423.433 504.796 425.127ZM504.796 270.736V345.375C504.796 347.069 503.424 348.443 501.731 348.443H450.653C448.96 348.443 447.588 347.069 447.588 345.375V270.736C447.588 269.042 448.96 267.668 450.653 267.668H501.731C503.424 267.668 504.796 269.042 504.796 270.736Z" stroke="#7BD1AC" stroke-width="1.7146" stroke-linecap="round"/>
</g>
<path opacity="0.25" d="M846 913.863H115.579M746.397 913.863V198.141C746.397 196.447 745.025 195.074 743.332 195.074H713.707M412.344 599.457V198.141C412.344 196.447 413.716 195.074 415.409 195.074H440.948M412.344 599.457L354.501 554.923C353.376 554.057 351.805 554.077 350.702 554.971L154.477 714.145C152.234 715.965 153.52 719.596 156.407 719.596H185.556C187.249 719.596 188.621 720.969 188.621 722.663V913.863M412.344 599.457L566.808 721.276C569.092 723.078 567.819 726.753 564.911 726.753H530.335C528.643 726.753 527.271 728.126 527.271 729.82V913.863M440.948 195.074V165.934C440.948 164.24 442.32 162.866 444.013 162.866H710.642C712.335 162.866 713.707 164.24 713.707 165.934V195.074M440.948 195.074H713.707M382.719 913.863V769.696C382.719 768.002 384.091 766.629 385.783 766.629H458.826C460.518 766.629 461.89 768.002 461.89 769.696V913.863M700.937 741.578V815.707C700.937 817.401 699.565 818.774 697.873 818.774H647.305C645.612 818.774 644.24 817.401 644.24 815.707V741.578C644.24 739.884 645.612 738.511 647.305 738.511H697.873C699.565 738.511 700.937 739.884 700.937 741.578ZM245.829 745.668V819.797C245.829 821.491 247.201 822.864 248.893 822.864H315.295C316.988 822.864 318.36 821.491 318.36 819.797V745.668C318.36 743.974 316.988 742.601 315.295 742.601H248.893C247.201 742.601 245.829 743.974 245.829 745.668ZM701.193 425.127V499.767C701.193 501.461 699.821 502.834 698.128 502.834H647.05C645.357 502.834 643.985 501.461 643.985 499.767V425.127C643.985 423.433 645.357 422.06 647.05 422.06H698.128C699.821 422.06 701.193 423.433 701.193 425.127ZM701.193 270.736V345.375C701.193 347.069 699.821 348.443 698.128 348.443H647.05C645.357 348.443 643.985 347.069 643.985 345.375V270.736C643.985 269.042 645.357 267.668 647.05 267.668H698.128C699.821 267.668 701.193 269.042 701.193 270.736ZM701.193 579.519V654.158C701.193 655.852 699.821 657.225 698.128 657.225H647.05C645.357 657.225 643.985 655.852 643.985 654.158V579.519C643.985 577.824 645.357 576.451 647.05 576.451H698.128C699.821 576.451 701.193 577.824 701.193 579.519ZM602.867 425.127V499.767C602.867 501.461 601.495 502.834 599.802 502.834H548.724C547.031 502.834 545.659 501.461 545.659 499.767V425.127C545.659 423.433 547.031 422.06 548.724 422.06H599.802C601.495 422.06 602.867 423.433 602.867 425.127ZM602.867 270.736V345.375C602.867 347.069 601.495 348.443 599.802 348.443H548.724C547.031 348.443 545.659 347.069 545.659 345.375V270.736C545.659 269.042 547.031 267.668 548.724 267.668H599.802C601.495 267.668 602.867 269.042 602.867 270.736ZM603.122 579.519V654.158C603.122 655.852 601.75 657.225 600.057 657.225H548.979C547.286 657.225 545.914 655.852 545.914 654.158V579.519C545.914 577.824 547.286 576.451 548.979 576.451H600.057C601.75 576.451 603.122 577.824 603.122 579.519ZM504.796 425.127V499.767C504.796 501.461 503.424 502.834 501.731 502.834H450.653C448.96 502.834 447.588 501.461 447.588 499.767V425.127C447.588 423.433 448.96 422.06 450.653 422.06H501.731C503.424 422.06 504.796 423.433 504.796 425.127ZM504.796 270.736V345.375C504.796 347.069 503.424 348.443 501.731 348.443H450.653C448.96 348.443 447.588 347.069 447.588 345.375V270.736C447.588 269.042 448.96 267.668 450.653 267.668H501.731C503.424 267.668 504.796 269.042 504.796 270.736Z" stroke="white" stroke-width="0.857302" stroke-linecap="round"/>
<defs>
<filter id="filter0_f_2242_875" x="93.8167" y="107.142" width="708.46" height="865.018" filterUnits="userSpaceOnUse" color-interpolation-filters="sRGB">
<feFlood flood-opacity="0" result="BackgroundImageFix"/>
<feBlend mode="normal" in="SourceGraphic" in2="BackgroundImageFix" result="shape"/>
<feGaussianBlur stdDeviation="29.1483" result="effect1_foregroundBlur_2242_875"/>
</filter>
<filter id="filter1_f_2242_875" x="0.171913" y="0.493202" width="900.181" height="1079.17" filterUnits="userSpaceOnUse" color-interpolation-filters="sRGB">
<feFlood flood-opacity="0" result="BackgroundImageFix"/>
<feBlend mode="normal" in="SourceGraphic" in2="BackgroundImageFix" result="shape"/>
<feGaussianBlur stdDeviation="56.7534" result="effect1_foregroundBlur_2242_875"/>
</filter>
<filter id="filter2_f_2242_875" x="113.864" y="161.152" width="733.85" height="754.426" filterUnits="userSpaceOnUse" color-interpolation-filters="sRGB">
<feFlood flood-opacity="0" result="BackgroundImageFix"/>
<feBlend mode="normal" in="SourceGraphic" in2="BackgroundImageFix" result="shape"/>
<feGaussianBlur stdDeviation="0.428651" result="effect1_foregroundBlur_2242_875"/>
</filter>
</defs>
</svg>
