<svg width="1070" height="1064" viewBox="0 0 1070 1064" fill="none" xmlns="http://www.w3.org/2000/svg">
<g opacity="0.08" filter="url(#filter0_f_2539_1154)">
<path d="M259.562 706.03C281.395 716.03 326.062 736.33 330.062 737.53C281.661 807.13 336.562 801.53 370.062 790.03C342.062 852.03 390.729 843.53 418.562 831.53C402.962 891.93 448.729 884.696 473.562 873.53C454.763 917.93 504.729 907.363 532.062 896.53C602.062 926.53 603.896 888.363 596.062 865.53C656.062 886.33 655.729 847.196 648.062 825.03C721.562 849.53 697.562 790.03 697.562 781.03C766.362 796.23 749.562 752.03 732.562 728.03L812.062 699.03L823.062 722.03L917.062 691.53L831.562 473.53L732.562 505.03L737.562 524.03C715.562 533.863 669.862 553.53 663.062 553.53C535.862 499.53 460.062 535.03 438.062 559.53L335.062 524.03L339.062 506.53L239.062 473.53C211.729 543.863 156.762 685.93 155.562 691.53C154.362 697.13 218.062 718.196 250.062 728.03L259.562 706.03Z" fill="#06A177"/>
<path d="M364.062 324.03C368.062 454.03 480.729 487.196 536.562 487.53C596.729 487.53 717.062 454.83 717.062 324.03C717.062 193.23 596.729 157.196 536.562 155.53C477.396 157.53 360.062 194.03 364.062 324.03Z" fill="#06A177"/>
<path d="M537.144 134.537C570.21 135.453 619.501 145.65 661.183 173.989C703.89 203.025 738.062 250.929 738.062 324.03C738.062 397.19 703.817 444.395 660.847 472.419C631.263 491.713 597.9 501.775 569.209 506.015C597.544 509.242 629.439 517.128 664.698 531.469C665.506 531.196 666.409 530.886 667.405 530.53C672.555 528.688 679.26 526.059 686.662 523.031C695.186 519.544 704.362 515.639 712.688 512.028L712.254 510.374L707.174 491.071L726.195 485.018L825.195 453.518L843.933 447.556L851.112 465.862L936.612 683.862L944.755 704.622L923.544 711.504L829.544 742.004L812.052 747.68L804.118 731.09L801.345 725.292L762.852 739.333C763.058 739.829 763.261 740.326 763.459 740.825C766.902 749.498 770.096 761.251 767.879 773.094C766.695 779.419 763.928 785.889 758.848 791.443C753.797 796.964 747.407 800.545 740.554 802.628C735.008 804.314 728.897 805.1 722.28 805.134C722.406 810.023 722.064 815.346 720.766 820.616C717.692 833.091 709.089 845.305 692.488 849.972C686.301 851.712 679.543 852.226 672.262 851.711C671.514 858.569 669.486 865.993 665.055 872.823C658.117 883.516 647.005 890.114 633.317 891.914C628.941 892.49 624.339 892.577 619.517 892.216C618.275 899.897 615.169 908.273 608.461 915.321C599.103 925.152 586.071 928.945 572.093 928.544C560.443 928.21 547.033 925 531.668 919.047C525.909 921.017 519.635 922.85 513.279 924.255C504.066 926.292 493.237 927.765 483.121 926.606C473.309 925.481 459.098 921.096 452.036 906.548C451.256 904.942 450.618 903.313 450.105 901.668C442.024 902.515 432.86 902.258 424.051 899.219C411.969 895.051 401.775 885.975 397.112 871.638C395.93 868.001 395.154 864.182 394.744 860.2C386.173 861.414 376.066 861.622 366.622 858.414C360.711 856.407 354.651 852.912 349.774 847.183C344.851 841.399 342.105 834.478 341.108 827.209C340.689 824.15 340.573 820.996 340.73 817.756C331.282 818.442 319.924 817.901 310.045 813.019C303.72 809.893 297.683 804.808 293.854 797.195C290.098 789.724 289.397 781.675 290.344 774.107C291.385 765.783 294.566 756.826 299.532 747.212C297.388 746.253 295.161 745.256 292.885 744.232C285.595 740.953 277.742 737.395 270.344 734.032L269.341 736.355L261.881 753.631L243.894 748.103C227.706 743.129 203.413 735.288 183.181 727.926C173.15 724.276 163.63 720.569 156.503 717.272C153.073 715.685 149.363 713.816 146.281 711.752C144.851 710.795 142.477 709.092 140.306 706.624C138.912 705.04 132.75 697.756 135.027 687.129L135.2 686.393C135.638 684.648 136.303 682.778 136.563 682.029C137.095 680.502 137.806 678.529 138.656 676.21C140.364 671.553 142.746 665.191 145.628 657.569C151.398 642.307 159.253 621.782 167.911 599.267C185.232 554.227 205.816 501.102 219.488 465.922L226.711 447.339L245.644 453.587L345.644 486.587L363.793 492.577L359.736 510.322L433.068 535.596C449.498 522.572 474.852 510.814 508.476 506.258C480.81 502.102 448.1 491.793 418.952 471.692C378.128 443.537 345.289 396.724 343.072 324.675C340.837 252.026 373.032 203.964 414.498 174.635C454.868 146.081 503.262 135.643 535.854 134.541L536.498 134.52L537.144 134.537Z" stroke="#06A177" stroke-width="42"/>
</g>
<g filter="url(#filter1_f_2539_1154)">
<path d="M449.65 317.61C461.492 336.226 488.916 374.442 503.874 378.374L631.019 265.782M259.311 705.428L339.333 506.157L238.833 473.541L156.562 690.237L250.519 727.321L259.311 705.428ZM259.311 705.428L331.387 736.703M331.387 736.703C342.605 725.682 368.969 707.394 384.676 722.406C404.308 741.171 395.427 757.256 381.871 777.362M331.387 736.703L331.007 737.094C318.85 749.603 300.744 768.233 320.636 792.553C334.582 809.604 360.087 795.62 375.555 782.962M381.871 777.362C393.869 763.66 422.352 740.367 440.301 756.809C459.719 774.595 450.78 795.393 438.327 812.253M381.871 777.362C379.881 778.929 377.725 780.817 375.555 782.962M381.871 777.362C380.052 779.12 377.921 781.025 375.555 782.962M438.327 812.253C436.39 814.875 434.368 817.402 432.355 819.807M438.327 812.253C436.042 814.885 434.029 817.459 432.355 819.807M438.327 812.253C452.412 796.019 476.797 777.534 495.46 795.68C512.908 812.645 504.905 832.483 495.105 844.865M432.355 819.807C432.336 819.833 432.309 819.865 432.275 819.903M432.355 819.807C432.328 819.839 432.302 819.871 432.275 819.903M495.105 844.865C492.723 847.874 490.235 850.443 487.981 852.423M495.105 844.865C492.289 847.601 489.854 850.224 487.981 852.423M495.105 844.865C505.642 834.626 521.52 822.795 533.323 825.615C538.932 835.892 546.785 862.074 533.323 884.592C516.495 912.74 490.318 907.826 484.709 906.038C479.666 904.432 454.975 895.241 478.236 863.855M487.981 852.423C484.064 856.527 480.848 860.331 478.236 863.855M487.981 852.423C485.465 855.918 482.139 859.925 478.236 863.855M478.236 863.855C464.013 878.179 442.135 891.478 423.941 875.21C404.38 857.719 414.46 839.416 423.483 828.815M423.483 828.815C427.632 823.94 431.557 820.693 432.275 819.903M423.483 828.815C426.969 825.769 429.96 822.666 432.275 819.903M423.483 828.815C409.293 841.211 386.885 852.657 368.315 836.338C348.384 818.824 362.259 796.093 375.555 782.962M333.724 520.901C368.159 533.263 437.497 558.343 439.367 559.773M439.367 559.773C414.748 580.325 371.4 625.63 394.959 642.43C424.408 663.429 456.662 636.621 480.502 616.069C504.341 595.516 518.365 587.921 531.453 594.623C541.924 599.984 669.194 683.833 731.52 725.087C743.361 732.384 762.09 752.877 742.271 776.468C729.883 791.212 711.303 787.414 686.177 774.011M439.367 559.773C503.406 500.796 611.854 531.773 664.675 553.517L739.179 519.561M590.819 713.917C629.383 737.597 661.052 760.607 686.177 774.011M686.177 774.011C697.708 782.723 715.72 804.795 695.526 823.381C682.689 835.197 662.839 831.297 638.498 819.085M557.63 767.085C587.263 787.725 614.977 807.285 638.498 819.085M638.498 819.085C648.314 825.879 662.805 843.845 642.238 861.359C628.088 873.408 612.098 869.758 596.059 861.359M557.63 837.232C569.821 844.464 582.956 854.497 596.059 861.359M596.059 861.359C599.61 870.742 603.159 891.652 588.949 900.23C571.186 910.953 548.281 904.698 529.116 892.188M732.454 725.533L812.387 694.705M812.387 694.705L822.204 719.725L917.563 685.769L829.683 470.86L733.389 505.71L739.179 519.561M812.387 694.705L739.179 519.561M714.224 322.078C714.224 414.612 635.743 489.626 538.932 489.626C442.121 489.626 363.641 414.612 363.641 322.078C363.641 229.543 442.121 154.53 538.932 154.53C635.743 154.53 714.224 229.543 714.224 322.078Z" stroke="#7BD1AC" stroke-width="2" stroke-linecap="round"/>
</g>
<path opacity="0.25" d="M449.65 317.61C461.492 336.226 488.916 374.442 503.874 378.374L631.019 265.782M259.311 705.428L339.333 506.157L238.833 473.541L156.562 690.237L250.519 727.321L259.311 705.428ZM259.311 705.428L331.387 736.703M331.387 736.703C342.605 725.682 368.969 707.394 384.676 722.406C404.308 741.171 395.427 757.256 381.871 777.362M331.387 736.703L331.007 737.094C318.85 749.603 300.744 768.233 320.636 792.553C334.582 809.604 360.087 795.62 375.555 782.962M381.871 777.362C393.869 763.66 422.352 740.367 440.301 756.809C459.719 774.595 450.78 795.393 438.327 812.253M381.871 777.362C379.881 778.929 377.725 780.817 375.555 782.962M381.871 777.362C380.052 779.12 377.921 781.025 375.555 782.962M438.327 812.253C436.39 814.875 434.368 817.402 432.355 819.807M438.327 812.253C436.042 814.885 434.029 817.459 432.355 819.807M438.327 812.253C452.412 796.019 476.797 777.534 495.46 795.68C512.908 812.645 504.905 832.483 495.105 844.865M432.355 819.807C432.336 819.833 432.309 819.865 432.275 819.903M432.355 819.807C432.328 819.839 432.302 819.871 432.275 819.903M495.105 844.865C492.723 847.874 490.235 850.443 487.981 852.423M495.105 844.865C492.289 847.601 489.854 850.224 487.981 852.423M495.105 844.865C505.642 834.626 521.52 822.795 533.323 825.615C538.932 835.892 546.785 862.074 533.323 884.592C516.495 912.74 490.318 907.826 484.709 906.038C479.666 904.432 454.975 895.241 478.236 863.855M487.981 852.423C484.064 856.527 480.848 860.331 478.236 863.855M487.981 852.423C485.465 855.918 482.139 859.925 478.236 863.855M478.236 863.855C464.013 878.179 442.135 891.478 423.941 875.21C404.38 857.719 414.46 839.416 423.483 828.815M423.483 828.815C427.632 823.94 431.557 820.693 432.275 819.903M423.483 828.815C426.969 825.769 429.96 822.666 432.275 819.903M423.483 828.815C409.293 841.211 386.885 852.657 368.315 836.338C348.384 818.824 362.259 796.093 375.555 782.962M333.724 520.901C368.159 533.263 437.497 558.343 439.367 559.773M439.367 559.773C414.748 580.325 371.4 625.63 394.959 642.43C424.408 663.429 456.662 636.621 480.502 616.069C504.341 595.516 518.365 587.921 531.453 594.623C541.924 599.984 669.194 683.833 731.52 725.087C743.361 732.384 762.09 752.877 742.271 776.468C729.883 791.212 711.303 787.414 686.177 774.011M439.367 559.773C503.406 500.796 611.854 531.773 664.675 553.517L739.179 519.561M590.819 713.917C629.383 737.597 661.052 760.607 686.177 774.011M686.177 774.011C697.708 782.723 715.72 804.795 695.526 823.381C682.689 835.197 662.839 831.297 638.498 819.085M557.63 767.085C587.263 787.725 614.977 807.285 638.498 819.085M638.498 819.085C648.314 825.879 662.805 843.845 642.238 861.359C628.088 873.408 612.098 869.758 596.059 861.359M557.63 837.232C569.821 844.464 582.956 854.497 596.059 861.359M596.059 861.359C599.61 870.742 603.159 891.652 588.949 900.23C571.186 910.953 548.281 904.698 529.116 892.188M732.454 725.533L812.387 694.705M812.387 694.705L822.204 719.725L917.563 685.769L829.683 470.86L733.389 505.71L739.179 519.561M812.387 694.705L739.179 519.561M714.224 322.078C714.224 414.612 635.743 489.626 538.932 489.626C442.121 489.626 363.641 414.612 363.641 322.078C363.641 229.543 442.121 154.53 538.932 154.53C635.743 154.53 714.224 229.543 714.224 322.078Z" stroke="white" stroke-width="0.86" stroke-linecap="round"/>
<defs>
<filter id="filter0_f_2539_1154" x="0.00171661" y="7.62939e-06" width="1085.96" height="1063.08" filterUnits="userSpaceOnUse" color-interpolation-filters="sRGB">
<feFlood flood-opacity="0" result="BackgroundImageFix"/>
<feBlend mode="normal" in="SourceGraphic" in2="BackgroundImageFix" result="shape"/>
<feGaussianBlur stdDeviation="56.755" result="effect1_foregroundBlur_2539_1154"/>
</filter>
<filter id="filter1_f_2539_1154" x="154.417" y="152.67" width="765.327" height="756.72" filterUnits="userSpaceOnUse" color-interpolation-filters="sRGB">
<feFlood flood-opacity="0" result="BackgroundImageFix"/>
<feBlend mode="normal" in="SourceGraphic" in2="BackgroundImageFix" result="shape"/>
<feGaussianBlur stdDeviation="0.43" result="effect1_foregroundBlur_2539_1154"/>
</filter>
</defs>
</svg>
