<svg width="22" height="28" viewBox="0 0 22 28" fill="none" xmlns="http://www.w3.org/2000/svg">
<path d="M17.4121 12C19.9458 12.0002 21.9998 14.0542 22 16.5879V23.4111C22 25.945 19.946 27.9998 17.4121 28H4.58789C2.05404 27.9998 0 25.945 0 23.4111V16.5879C0.000194097 14.0542 2.05416 12.0002 4.58789 12H17.4121ZM7.17578 16.8682V22.9854H14.8232V16.8682H7.17578ZM10.999 0C12.7827 0 14.3258 0.319552 15.583 1.05566C16.8833 1.81726 17.685 2.91254 18.1504 4.0918C18.5943 5.21719 18.7291 6.40907 18.7744 7.44531C18.8181 8.4468 18.7813 9.58275 18.7812 10.4004H14.3242C14.3242 9.34504 14.3598 8.52108 14.3213 7.63965C14.2843 6.79312 14.1819 6.17522 14.0049 5.72656C13.8492 5.33224 13.6457 5.08618 13.3301 4.90137C12.9706 4.69103 12.2833 4.45703 10.999 4.45703C9.71471 4.45709 9.0257 4.69102 8.66406 4.90234C8.34596 5.08832 8.14234 5.3358 7.98633 5.72949C7.8091 6.17708 7.705 6.79376 7.66895 7.6377C7.63172 8.51042 7.66944 9.34379 7.6748 10.3887L5.44629 10.4004L3.21777 10.4111C3.21351 9.58312 3.17272 8.4573 3.21582 7.44727C3.2602 6.4084 3.39581 5.2153 3.8418 4.08887C4.30917 2.90878 5.11407 1.81517 6.41504 1.05469C7.67286 0.319515 9.21529 6.0112e-05 10.999 0Z" fill="#0AFF9D"/>
</svg>
