<svg width="17" height="19" viewBox="0 0 17 19" fill="none" xmlns="http://www.w3.org/2000/svg">
<path d="M8.50293 0.5C9.77499 0.500005 10.8221 0.785211 11.6533 1.34082C12.4858 1.89736 13.0176 2.66924 13.3555 3.49707C13.9331 4.91229 13.9836 6.62126 13.9883 8H14C15.6569 8 17 9.34315 17 11V16C17 17.6051 15.7394 18.9158 14.1543 18.9961L14 19H3L2.8457 18.9961C1.31166 18.9184 0.0816253 17.6883 0.00390625 16.1543L0 16V11C0 9.34315 1.34315 8 3 8H3.00391C3.00348 6.61728 3.05458 4.91026 3.6377 3.49414C3.97875 2.66591 4.5151 1.89542 5.34961 1.33984C6.18264 0.785264 7.23049 0.5 8.50293 0.5ZM3 10C2.44772 10 2 10.4477 2 11V16C2 16.5523 2.44772 17 3 17H14C14.5523 17 15 16.5523 15 16V11C15 10.4477 14.5523 10 14 10H3ZM8.50293 2.5C7.53116 2.5 6.89232 2.71489 6.45801 3.00391C6.02516 3.29208 5.71246 3.70909 5.4873 4.25586C5.06234 5.28797 5.00301 6.62467 5.00098 8H11.9873C11.9799 6.62112 11.9257 5.28637 11.5039 4.25293C11.2807 3.70595 10.9716 3.29007 10.542 3.00293C10.1109 2.7148 9.47467 2.5 8.50293 2.5Z" fill="#0AFF9D"/>
</svg>
