<svg width="1000" height="852" viewBox="0 0 1000 852" fill="none" xmlns="http://www.w3.org/2000/svg">
<g opacity="0.08" filter="url(#filter0_f_2538_1152)">
<path d="M165.088 366.746C164.288 390.346 144.422 539.58 134.588 611.246C130.186 643.646 153.088 660.413 165.088 664.746H487.588C489.988 687.146 495.255 692.413 497.588 692.246C541.988 695.446 598.422 690.913 621.088 688.246C639.588 698.246 684.888 718.046 718.088 717.246C751.288 716.446 829.588 681.913 864.588 664.746C856.588 510.246 771.588 377.746 771.588 366.746C763.588 338.246 802.588 249.746 808.088 244.246C786.488 222.246 788.088 171.08 791.588 148.246H771.588C773.588 195.746 741.088 249.746 683.588 244.246C637.588 239.846 622.755 174.413 621.088 142.246L604.588 148.246C618.988 191.846 601.089 234.08 590.34 249.746C610.091 275.246 628.088 366.746 628.088 377.746C628.088 386.546 602.923 386.08 590.34 384.746V336.246L586.588 322.246H493.588V330.246H450.088C454.755 278.746 441.088 175.746 349.088 175.746C257.088 175.746 241.422 278.746 245.088 330.246H236.588C175.588 329.246 166.088 337.246 165.088 366.746Z" fill="#06A177"/>
<path d="M165.088 366.746C164.288 390.346 144.422 539.58 134.588 611.246C130.186 643.646 153.088 660.413 165.088 664.746H487.588C489.988 687.146 495.255 692.413 497.588 692.246C541.988 695.446 598.422 690.913 621.088 688.246C639.588 698.246 684.888 718.046 718.088 717.246C751.288 716.446 829.588 681.913 864.588 664.746C856.588 510.246 771.588 377.746 771.588 366.746C763.588 338.246 802.588 249.746 808.088 244.246C786.488 222.246 788.088 171.08 791.588 148.246H771.588C773.588 195.746 741.088 249.746 683.588 244.246C637.588 239.846 622.755 174.413 621.088 142.246L604.588 148.246C618.988 191.846 601.089 234.08 590.34 249.746C610.091 275.246 628.088 366.746 628.088 377.746C628.088 386.546 602.923 386.08 590.34 384.746V336.246L586.588 322.246H493.588V330.246H450.088C454.755 278.746 441.088 175.746 349.088 175.746C257.088 175.746 241.422 278.746 245.088 330.246H236.588C175.588 329.246 166.088 337.246 165.088 366.746Z" stroke="#06A177" stroke-width="41"/>
</g>
<g filter="url(#filter1_f_2538_1152)">
<path d="M520.682 321.118H496.852C494.081 321.118 491.809 323.325 491.713 326.107L490.714 355.223M520.682 321.118V346.438M520.682 321.118H560.793M520.682 355.223V391.912M520.682 355.223H490.714M520.682 355.223V346.438M490.714 355.223L489.721 384.161M520.682 346.438H560.793M560.793 346.438V321.118M560.793 346.438V355.223M560.793 321.118H583.679C586.416 321.118 588.673 323.272 588.814 326.019L590.318 355.223M560.793 355.223V392.429M560.793 355.223H590.318M590.318 355.223L591.86 385.194M591.86 385.194L593.19 411.031M591.86 385.194C596.114 383.472 605.421 383.024 608.618 395.012C611.814 407.001 617.149 424.467 619.417 431.701M488.799 411.031L489.721 384.161M489.721 384.161C485.352 382.438 475.76 382.197 472.343 395.012C468.926 407.827 464.405 424.811 462.572 431.701M520.682 692.656H496.852C494.081 692.656 491.809 690.449 491.713 687.666L490.714 658.551M520.682 692.656V667.335M520.682 692.656H560.793M520.682 658.551V621.862M520.682 658.551H490.714M520.682 658.551V667.335M490.714 658.551L489.721 629.613M520.682 667.335H560.793M560.793 667.335V692.656M560.793 667.335V658.551M560.793 692.656H583.679C586.416 692.656 588.673 690.502 588.814 687.755L590.318 658.551M560.793 658.551V621.345M560.793 658.551H590.318M590.318 658.551L591.86 628.58M591.86 628.58L593.19 602.743M591.86 628.58C596.114 630.302 605.421 630.75 608.618 618.762C611.814 606.773 617.149 589.307 619.417 582.073M488.799 602.743L489.721 629.613M489.721 629.613C485.352 631.336 475.76 631.577 472.343 618.762C468.926 605.946 464.405 588.963 462.572 582.073M470.801 330.419H449.203M449.203 330.419C452.288 278.745 436.654 175.397 349.439 175.397C262.223 175.397 244.19 278.745 246.076 330.419M449.203 330.419V354.19C449.203 355.902 450.584 357.29 452.288 357.29H454.344C456.048 357.29 457.43 358.678 457.43 360.391V385.711C457.43 387.423 456.048 388.811 454.344 388.811H421.947C420.243 388.811 418.861 387.423 418.861 385.711V360.391C418.861 358.678 420.243 357.29 421.947 357.29H425.033C426.737 357.29 428.119 355.902 428.119 354.19V330.419M428.119 330.419H266.646M428.119 330.419C429.49 285.635 415.673 196.066 349.439 196.066C283.204 196.066 266.646 285.635 266.646 330.419M266.646 330.419V354.19C266.646 355.902 268.027 357.29 269.731 357.29H271.274C272.978 357.29 274.359 358.678 274.359 360.391V385.711C274.359 387.423 272.978 388.811 271.274 388.811H240.419C238.715 388.811 237.333 387.423 237.333 385.711V360.391C237.333 358.678 238.715 357.29 240.419 357.29H242.991C244.695 357.29 246.076 355.902 246.076 354.19V330.419M246.076 330.419H195.166C185.224 329.558 165.34 335.07 165.34 364.008M165.34 364.008V395.529C164.857 403.28 170.66 422.71 197.737 438.419C224.814 454.128 281.699 484.581 306.756 497.844C318.926 504.562 350.055 514.276 377.207 499.394C404.36 484.512 416.29 477.691 418.861 476.141M165.34 364.008C164.311 377.271 161.534 409.584 158.654 432.734C155.774 455.884 142.712 543.317 136.541 584.14C130.37 609.116 132.016 659.068 187.966 659.068H461.03M625.588 376.41C627.473 367.797 629.085 344.785 620.445 321.635C612.074 299.202 600.451 262.667 595.216 245.692C594.913 244.711 595.116 243.661 595.699 242.817C603.136 232.049 613.946 200.286 605.036 147.442C604.753 145.763 605.847 144.137 607.512 143.82L619.89 141.467C621.784 141.107 623.538 142.552 623.602 144.488C624.771 179.932 640.329 244.124 695.525 244.124C764.891 244.124 767.427 179.401 771.746 143.933C771.957 142.199 773.563 141.007 775.279 141.287L790.928 143.847C792.718 144.14 793.874 145.896 793.479 147.674C788.728 169.092 785.121 213.054 803.741 242.867C804.24 243.667 804.375 244.646 804.083 245.543L779.347 321.635C775.404 331.97 769.165 357.393 775.747 376.41C783.926 400.038 856.64 542.131 865.081 661.071C865.172 662.36 864.463 663.548 863.29 664.078C837.726 675.627 783.925 699.066 758.263 707.125C725.351 717.459 697.068 723.66 620.959 689.039M547.937 502.495L600.39 465.806M531.995 502.495L499.598 475.624M540.737 448.237V427.567M570.564 453.921L578.277 437.902M509.883 453.921L501.655 437.902M487.256 475.624L471.829 465.806M480.571 507.145H462.572M600.39 507.145H617.874M591.133 536.6L607.075 546.934M570.564 558.303L578.277 576.906M540.737 565.537V584.14M509.883 560.37L501.655 576.906M488.799 536.6L473.886 546.934M648.214 491.126H659.528C662.099 490.954 667.241 492.573 667.241 500.428V512.829C667.241 516.102 665.699 522.648 659.528 522.648H648.214M648.214 506.629C648.214 566.56 599.865 615.144 540.223 615.144C480.581 615.144 432.232 566.56 432.232 506.629C432.232 446.697 480.581 398.113 540.223 398.113C599.865 398.113 648.214 446.697 648.214 506.629ZM627.645 506.629C627.645 555.715 588.274 595.508 539.709 595.508C491.143 595.508 451.773 555.715 451.773 506.629C451.773 457.542 491.143 417.749 539.709 417.749C588.274 417.749 627.645 457.542 627.645 506.629ZM548.451 506.629C548.451 511.195 544.767 514.896 540.223 514.896C535.679 514.896 531.995 511.195 531.995 506.629C531.995 502.062 535.679 498.361 540.223 498.361C544.767 498.361 548.451 502.062 548.451 506.629Z" stroke="#7BD1AC" stroke-width="2" stroke-linecap="round"/>
</g>
<path opacity="0.25" d="M520.682 321.118H496.852C494.081 321.118 491.809 323.325 491.713 326.107L490.714 355.223M520.682 321.118V346.438M520.682 321.118H560.793M520.682 355.223V391.912M520.682 355.223H490.714M520.682 355.223V346.438M490.714 355.223L489.721 384.161M520.682 346.438H560.793M560.793 346.438V321.118M560.793 346.438V355.223M560.793 321.118H583.679C586.416 321.118 588.673 323.272 588.814 326.019L590.318 355.223M560.793 355.223V392.429M560.793 355.223H590.318M590.318 355.223L591.86 385.194M591.86 385.194L593.19 411.031M591.86 385.194C596.114 383.472 605.421 383.024 608.618 395.012C611.814 407.001 617.149 424.467 619.417 431.701M488.799 411.031L489.721 384.161M489.721 384.161C485.352 382.438 475.76 382.197 472.343 395.012C468.926 407.827 464.405 424.811 462.572 431.701M520.682 692.656H496.852C494.081 692.656 491.809 690.449 491.713 687.666L490.714 658.551M520.682 692.656V667.335M520.682 692.656H560.793M520.682 658.551V621.862M520.682 658.551H490.714M520.682 658.551V667.335M490.714 658.551L489.721 629.613M520.682 667.335H560.793M560.793 667.335V692.656M560.793 667.335V658.551M560.793 692.656H583.679C586.416 692.656 588.673 690.502 588.814 687.755L590.318 658.551M560.793 658.551V621.345M560.793 658.551H590.318M590.318 658.551L591.86 628.58M591.86 628.58L593.19 602.743M591.86 628.58C596.114 630.302 605.421 630.75 608.618 618.762C611.814 606.773 617.149 589.307 619.417 582.073M488.799 602.743L489.721 629.613M489.721 629.613C485.352 631.336 475.76 631.577 472.343 618.762C468.926 605.946 464.405 588.963 462.572 582.073M470.801 330.419H449.203M449.203 330.419C452.288 278.745 436.654 175.397 349.439 175.397C262.223 175.397 244.19 278.745 246.076 330.419M449.203 330.419V354.19C449.203 355.902 450.584 357.29 452.288 357.29H454.344C456.048 357.29 457.43 358.678 457.43 360.391V385.711C457.43 387.423 456.048 388.811 454.344 388.811H421.947C420.243 388.811 418.861 387.423 418.861 385.711V360.391C418.861 358.678 420.243 357.29 421.947 357.29H425.033C426.737 357.29 428.119 355.902 428.119 354.19V330.419M428.119 330.419H266.646M428.119 330.419C429.49 285.635 415.673 196.066 349.439 196.066C283.204 196.066 266.646 285.635 266.646 330.419M266.646 330.419V354.19C266.646 355.902 268.027 357.29 269.731 357.29H271.274C272.978 357.29 274.359 358.678 274.359 360.391V385.711C274.359 387.423 272.978 388.811 271.274 388.811H240.419C238.715 388.811 237.333 387.423 237.333 385.711V360.391C237.333 358.678 238.715 357.29 240.419 357.29H242.991C244.695 357.29 246.076 355.902 246.076 354.19V330.419M246.076 330.419H195.166C185.224 329.558 165.34 335.07 165.34 364.008M165.34 364.008V395.529C164.857 403.28 170.66 422.71 197.737 438.419C224.814 454.128 281.699 484.581 306.756 497.844C318.926 504.562 350.055 514.276 377.207 499.394C404.36 484.512 416.29 477.691 418.861 476.141M165.34 364.008C164.311 377.271 161.534 409.584 158.654 432.734C155.774 455.884 142.712 543.317 136.541 584.14C130.37 609.116 132.016 659.068 187.966 659.068H461.03M625.588 376.41C627.473 367.797 629.085 344.785 620.445 321.635C612.074 299.202 600.451 262.667 595.216 245.692C594.913 244.711 595.116 243.661 595.699 242.817C603.136 232.049 613.946 200.286 605.036 147.442C604.753 145.763 605.847 144.137 607.512 143.82L619.89 141.467C621.784 141.107 623.538 142.552 623.602 144.488C624.771 179.932 640.329 244.124 695.525 244.124C764.891 244.124 767.427 179.401 771.746 143.933C771.957 142.199 773.563 141.007 775.279 141.287L790.928 143.847C792.718 144.14 793.874 145.896 793.479 147.674C788.728 169.092 785.121 213.054 803.741 242.867C804.24 243.667 804.375 244.646 804.083 245.543L779.347 321.635C775.404 331.97 769.165 357.393 775.747 376.41C783.926 400.038 856.64 542.131 865.081 661.071C865.172 662.36 864.463 663.548 863.29 664.078C837.726 675.627 783.925 699.066 758.263 707.125C725.351 717.459 697.068 723.66 620.959 689.039M547.937 502.495L600.39 465.806M531.995 502.495L499.598 475.624M540.737 448.237V427.567M570.564 453.921L578.277 437.902M509.883 453.921L501.655 437.902M487.256 475.624L471.829 465.806M480.571 507.145H462.572M600.39 507.145H617.874M591.133 536.6L607.075 546.934M570.564 558.303L578.277 576.906M540.737 565.537V584.14M509.883 560.37L501.655 576.906M488.799 536.6L473.886 546.934M648.214 491.126H659.528C662.099 490.954 667.241 492.573 667.241 500.428V512.829C667.241 516.102 665.699 522.648 659.528 522.648H648.214M648.214 506.629C648.214 566.56 599.865 615.144 540.223 615.144C480.581 615.144 432.232 566.56 432.232 506.629C432.232 446.697 480.581 398.113 540.223 398.113C599.865 398.113 648.214 446.697 648.214 506.629ZM627.645 506.629C627.645 555.715 588.274 595.508 539.709 595.508C491.143 595.508 451.773 555.715 451.773 506.629C451.773 457.542 491.143 417.749 539.709 417.749C588.274 417.749 627.645 457.542 627.645 506.629ZM548.451 506.629C548.451 511.195 544.767 514.896 540.223 514.896C535.679 514.896 531.995 511.195 531.995 506.629C531.995 502.062 535.679 498.361 540.223 498.361C544.767 498.361 548.451 502.062 548.451 506.629Z" stroke="white" stroke-width="0.86" stroke-linecap="round"/>
<defs>
<filter id="filter0_f_2538_1152" x="-0.000236511" y="-5.34058e-05" width="999.271" height="851.28" filterUnits="userSpaceOnUse" color-interpolation-filters="sRGB">
<feFlood flood-opacity="0" result="BackgroundImageFix"/>
<feBlend mode="normal" in="SourceGraphic" in2="BackgroundImageFix" result="shape"/>
<feGaussianBlur stdDeviation="56.755" result="effect1_foregroundBlur_2538_1152"/>
</filter>
<filter id="filter1_f_2538_1152" x="132.229" y="139.386" width="734.72" height="577.72" filterUnits="userSpaceOnUse" color-interpolation-filters="sRGB">
<feFlood flood-opacity="0" result="BackgroundImageFix"/>
<feBlend mode="normal" in="SourceGraphic" in2="BackgroundImageFix" result="shape"/>
<feGaussianBlur stdDeviation="0.43" result="effect1_foregroundBlur_2538_1152"/>
</filter>
</defs>
</svg>
