<svg width="51" height="52" viewBox="0 0 51 52" fill="none" xmlns="http://www.w3.org/2000/svg">
<path d="M25.6282 0.9375C39.5523 0.9375 50.8401 12.2253 50.8401 26.1494C50.84 40.0734 39.5522 51.3613 25.6282 51.3613C11.7044 51.3611 0.417361 40.0732 0.417236 26.1494C0.417236 12.2255 11.7043 0.937745 25.6282 0.9375ZM38.0159 18.2188C38.4392 16.5213 37.369 15.7516 36.26 16.2549L11.9739 25.6191C10.3166 26.284 10.3264 27.209 11.6721 27.6211L17.9045 29.5664L32.3323 20.4639C33.0134 20.0508 33.6383 20.2722 33.1252 20.7275L21.4348 31.2783L21.0061 37.7051C21.6364 37.7051 21.915 37.4163 22.2668 37.0742L25.2952 34.1299L31.595 38.7842C32.7544 39.4239 33.5913 39.093 33.8801 37.708L38.0159 18.2188Z" fill="white"/>
</svg>
