<svg width="52" height="52" viewBox="0 0 52 52" fill="none" xmlns="http://www.w3.org/2000/svg">
<path d="M25.9636 0.9375C39.8876 0.937572 51.1755 12.2254 51.1755 26.1494C51.1755 40.0734 39.8876 51.3613 25.9636 51.3613C12.0396 51.3613 0.751781 40.0734 0.751709 26.1494C0.751709 12.2253 12.0395 0.9375 25.9636 0.9375ZM25.5818 19.4922C24.067 19.4773 22.7858 19.4984 22.0593 19.8467C21.576 20.0785 21.2026 20.5961 21.4304 20.626C21.7108 20.6626 22.3464 20.7941 22.6833 21.2441C23.1164 21.8231 23.1034 23.1181 23.1033 23.1299C23.1033 23.1299 23.3525 26.7249 22.5183 27.1709C21.9466 27.477 21.1625 26.852 19.4763 23.9932C18.6191 22.5391 17.9696 20.9331 17.9607 20.9111C17.9607 20.9111 17.8352 20.608 17.6101 20.4453C17.3429 20.2524 16.9719 20.1906 16.9587 20.1885L12.9246 20.2139C12.9246 20.2139 12.3178 20.2303 12.0955 20.4893C11.8982 20.7184 12.0808 21.1943 12.0808 21.1943C12.1082 21.2571 15.2547 28.4641 18.8162 32.1045C22.0963 35.4557 25.8201 35.2363 25.8201 35.2363H27.5076C27.5203 35.2349 28.0204 35.177 28.2781 34.9053C28.5135 34.6566 28.5087 34.1907 28.5085 34.1777C28.5085 34.1777 28.4771 31.955 29.5281 31.627C30.5639 31.3049 31.8941 33.7763 33.3054 34.7266C34.3587 35.4363 35.1612 35.2917 35.1804 35.2881L38.9529 35.2363C38.9829 35.2344 40.9174 35.1051 39.99 33.5947C39.9127 33.47 39.4442 32.468 37.1863 30.4102C34.8205 28.256 35.1384 28.6046 37.9861 24.8779C39.7208 22.6085 40.4139 21.2223 40.197 20.6299C39.9911 20.0634 38.7146 20.2139 38.7146 20.2139L34.4695 20.2393C34.4664 20.2389 34.1539 20.1988 33.9216 20.335C33.6937 20.4692 33.5457 20.7822 33.5457 20.7822C33.537 20.805 32.8686 22.5471 31.9783 24.0312C30.0875 27.1819 29.3316 27.3485 29.0222 27.1533C28.3031 26.6964 28.4821 25.3211 28.4822 24.3438C28.4822 21.2896 28.9547 20.0161 27.5642 19.6865C27.1029 19.5767 26.7626 19.5044 25.5818 19.4922Z" fill="white"/>
</svg>
